<svg xmlns="http://www.w3.org/2000/svg" viewBox="0 0 386 514" width="386" height="514">
	<defs>
		<filter id="flt1"> <feColorMatrix in="SourceGraphic" type="matrix" values="0 0 0 0 1   0 0 0 0 1   0 0 0 0 1   0 0 0 1 0" /> </filter>
	</defs>
	<style>
		tspan { white-space:pre }
		.shp0 { filter: url(#flt1);fill: #ffffff } 
	</style>
	<path id="Layer" class="shp0" d="M384.57,117.73l1.1,352c0.07,23.53 -19.01,42.73 -42.53,42.8l-298.67,0.93c-23.52,0.07 -42.73,-19 -42.8,-42.53l-1.33,-426.66c-0.07,-23.53 19.01,-42.73 42.53,-42.8l224,-0.7c2.95,-0.01 5.63,1.18 7.56,3.11l106.97,106.31c1.94,1.92 3.15,4.59 3.16,7.54zM214.83,416.93c-0.02,-5.9 -4.8,-10.65 -10.7,-10.63l-106.67,0.33c-5.9,0.02 -10.65,4.8 -10.63,10.7c0.02,5.9 4.8,10.65 10.7,10.63l106.67,-0.33c5.9,-0.02 10.65,-4.8 10.63,-10.7zM299.97,352.67c-0.02,-5.9 -4.8,-10.65 -10.7,-10.63l-192,0.6c-5.9,0.02 -10.65,4.8 -10.63,10.7c0.02,5.9 4.8,10.65 10.7,10.63l192,-0.6c5.9,-0.02 10.65,-4.8 10.63,-10.7zM299.77,288.67c-0.02,-5.9 -4.8,-10.65 -10.7,-10.63l-192,0.6c-5.9,0.02 -10.65,4.8 -10.63,10.7c0.02,5.9 4.8,10.65 10.7,10.63l192,-0.6c5.9,-0.02 10.65,-4.8 10.63,-10.7zM299.57,224.67c-0.02,-5.9 -4.8,-10.65 -10.7,-10.63l-192,0.6c-5.9,0.02 -10.65,4.8 -10.63,10.7c0.02,5.9 4.8,10.65 10.7,10.63l192,-0.6c5.9,-0.02 10.65,-4.8 10.63,-10.7zM348.12,107.18l-70.47,-70.03l0.15,48.92c0.04,11.76 9.63,21.3 21.4,21.27z" />
</svg>