<svg xmlns="http://www.w3.org/2000/svg" viewBox="0 0 448 447" width="448" height="447">
	<defs>
		<filter id="flt1"> <feColorMatrix in="SourceGraphic" type="matrix" values="0 0 0 0 1   0 0 0 0 1   0 0 0 0 1   0 0 0 1 0" /> </filter>
		<filter id="flt2"> <feColorMatrix in="SourceGraphic" type="matrix" values="0 0 0 0 1   0 0 0 0 1   0 0 0 0 1   0 0 0 1 0" /> </filter>
		<filter id="flt3"> <feColorMatrix in="SourceGraphic" type="matrix" values="0 0 0 0 1   0 0 0 0 1   0 0 0 0 1   0 0 0 1 0" /> </filter>
		<filter id="flt4"> <feColorMatrix in="SourceGraphic" type="matrix" values="0 0 0 0 1   0 0 0 0 1   0 0 0 0 1   0 0 0 1 0" /> </filter>
		<filter id="flt5"> <feColorMatrix in="SourceGraphic" type="matrix" values="0 0 0 0 1   0 0 0 0 1   0 0 0 0 1   0 0 0 1 0" /> </filter>
		<filter id="flt6"> <feColorMatrix in="SourceGraphic" type="matrix" values="0 0 0 0 1   0 0 0 0 1   0 0 0 0 1   0 0 0 1 0" /> </filter>
		<filter id="flt7"> <feColorMatrix in="SourceGraphic" type="matrix" values="0 0 0 0 1   0 0 0 0 1   0 0 0 0 1   0 0 0 1 0" /> </filter>
		<filter id="flt8"> <feColorMatrix in="SourceGraphic" type="matrix" values="0 0 0 0 1   0 0 0 0 1   0 0 0 0 1   0 0 0 1 0" /> </filter>
		<filter id="flt9"> <feColorMatrix in="SourceGraphic" type="matrix" values="0 0 0 0 1   0 0 0 0 1   0 0 0 0 1   0 0 0 1 0" /> </filter>
		<filter id="flt10"> <feColorMatrix in="SourceGraphic" type="matrix" values="0 0 0 0 1   0 0 0 0 1   0 0 0 0 1   0 0 0 1 0" /> </filter>
		<filter id="flt11"> <feColorMatrix in="SourceGraphic" type="matrix" values="0 0 0 0 1   0 0 0 0 1   0 0 0 0 1   0 0 0 1 0" /> </filter>
		<filter id="flt12"> <feColorMatrix in="SourceGraphic" type="matrix" values="0 0 0 0 1   0 0 0 0 1   0 0 0 0 1   0 0 0 1 0" /> </filter>
		<filter id="flt13"> <feColorMatrix in="SourceGraphic" type="matrix" values="0 0 0 0 1   0 0 0 0 1   0 0 0 0 1   0 0 0 1 0" /> </filter>
		<filter id="flt14"> <feColorMatrix in="SourceGraphic" type="matrix" values="0 0 0 0 1   0 0 0 0 1   0 0 0 0 1   0 0 0 1 0" /> </filter>
		<filter id="flt15"> <feColorMatrix in="SourceGraphic" type="matrix" values="0 0 0 0 1   0 0 0 0 1   0 0 0 0 1   0 0 0 1 0" /> </filter>
		<filter id="flt16"> <feColorMatrix in="SourceGraphic" type="matrix" values="0 0 0 0 1   0 0 0 0 1   0 0 0 0 1   0 0 0 1 0" /> </filter>
	</defs>
	<style>
		tspan { white-space:pre }
		.shp0 { filter: url(#flt1);fill: #ffffff } 
		.shp1 { filter: url(#flt2);fill: #ffffff } 
		.shp2 { filter: url(#flt3);fill: #ffffff } 
		.shp3 { filter: url(#flt4);fill: #ffffff } 
		.shp4 { filter: url(#flt5);fill: #ffffff } 
		.shp5 { filter: url(#flt6);fill: #ffffff } 
		.shp6 { filter: url(#flt7);fill: #ffffff } 
		.shp7 { filter: url(#flt8);fill: #ffffff } 
		.shp8 { filter: url(#flt9);fill: #ffffff } 
		.shp9 { filter: url(#flt10);fill: #ffffff } 
		.shp10 { filter: url(#flt11);fill: #ffffff } 
		.shp11 { filter: url(#flt12);fill: #ffffff } 
		.shp12 { filter: url(#flt13);fill: #ffffff } 
		.shp13 { filter: url(#flt14);fill: #ffffff } 
		.shp14 { filter: url(#flt15);fill: #ffffff } 
		.shp15 { filter: url(#flt16);fill: #ffffff } 
	</style>
	<path id="Layer" class="shp0" d="M231.82,447.05c34.23,-4.86 64.24,-40.59 83.12,-93.35c-27.3,-6.11 -55.15,-9.39 -83.12,-9.79z" />
	<path id="Layer" class="shp1" d="M286.5,438.66c2.02,-0.59 4.04,-1.18 6.04,-1.82c1.69,-0.54 3.35,-1.13 5.02,-1.71c1.97,-0.68 3.93,-1.38 5.88,-2.12c1.66,-0.63 3.31,-1.3 4.96,-1.98c1.91,-0.8 3.81,-1.6 5.69,-2.4c1.64,-0.72 3.28,-1.48 4.91,-2.24c1.85,-0.87 3.69,-1.76 5.51,-2.68c1.6,-0.82 3.2,-1.65 4.8,-2.5c1.79,-0.96 3.57,-1.94 5.34,-2.95c1.6,-0.91 3.14,-1.82 4.7,-2.75c1.73,-1.07 3.46,-2.13 5.18,-3.2c1.54,-0.98 3.07,-1.97 4.58,-2.99c1.69,-1.14 3.35,-2.32 5.01,-3.5c1.49,-1.07 2.97,-2.13 4.42,-3.2c1.6,-1.23 3.24,-2.51 4.85,-3.79c1.43,-1.14 2.85,-2.27 4.25,-3.43c1.6,-1.33 3.13,-2.7 4.68,-4.08c1.36,-1.21 2.73,-2.4 4.05,-3.64c1.53,-1.43 3.02,-2.9 4.5,-4.37c1.29,-1.27 2.59,-2.53 3.86,-3.83c0.23,-0.24 0.46,-0.5 0.7,-0.75c-17.45,-9.01 -35.83,-16.09 -54.82,-21.09c-9.87,31.49 -27.45,60.03 -51.13,83.02c0.65,-0.17 1.3,-0.3 1.95,-0.47c1.71,-0.48 3.39,-1.01 5.06,-1.5z" />
	<path id="Layer" class="shp2" d="M447.63,231.68h-95.92c-0.36,37.45 -5.8,74.68 -16.15,110.68c21.12,5.64 41.5,13.75 60.71,24.16c31.55,-38.03 49.62,-85.45 51.36,-134.84z" />
	<path id="Layer" class="shp3" d="M231.82,215.68h103.89c-0.41,-36.13 -5.71,-72.04 -15.75,-106.74c-28.93,6.6 -58.48,10.12 -88.14,10.51z" />
	<path id="Layer" class="shp4" d="M231.82,0.32v103.14c27.97,-0.39 55.82,-3.67 83.12,-9.79c-18.88,-52.76 -48.89,-88.49 -83.12,-93.35z" />
	<path id="Layer" class="shp5" d="M231.82,327.91c29.67,0.39 59.21,3.92 88.14,10.52c10.04,-34.71 15.34,-70.62 15.75,-106.75h-103.89z" />
	<path id="Layer" class="shp6" d="M396.27,80.84c-19.22,10.41 -39.6,18.52 -60.71,24.16c10.36,36 15.79,73.23 16.15,110.68h95.92c-1.75,-49.39 -19.81,-96.8 -51.36,-134.84z" />
	<path id="Layer" class="shp7" d="M385.46,68.71c-0.23,-0.24 -0.46,-0.5 -0.69,-0.74c-1.27,-1.3 -2.58,-2.56 -3.87,-3.83c-1.48,-1.46 -2.96,-2.95 -4.5,-4.37c-1.32,-1.23 -2.7,-2.4 -4.05,-3.63c-1.55,-1.37 -3.1,-2.76 -4.7,-4.09c-1.38,-1.17 -2.8,-2.29 -4.21,-3.41c-1.6,-1.3 -3.24,-2.59 -4.89,-3.82c-1.45,-1.09 -2.91,-2.14 -4.38,-3.2c-1.67,-1.2 -3.35,-2.4 -5.05,-3.55c-1.5,-1.01 -3.02,-1.99 -4.54,-2.96c-1.73,-1.11 -3.46,-2.2 -5.22,-3.26c-1.54,-0.93 -3.1,-1.84 -4.66,-2.73c-1.79,-1.02 -3.58,-2.02 -5.39,-2.98c-1.6,-0.8 -3.2,-1.67 -4.8,-2.47c-1.84,-0.93 -3.7,-1.82 -5.6,-2.7c-1.6,-0.76 -3.23,-1.5 -4.87,-2.23c-1.89,-0.84 -3.81,-1.6 -5.72,-2.4c-1.65,-0.67 -3.29,-1.34 -4.95,-1.97c-1.94,-0.74 -3.91,-1.44 -5.88,-2.12c-1.66,-0.59 -3.33,-1.17 -5.02,-1.71c-2,-0.65 -4,-1.24 -6.05,-1.83c-1.66,-0.49 -3.34,-0.98 -5.02,-1.43c-0.64,-0.18 -1.3,-0.31 -1.95,-0.48c23.68,22.99 41.25,51.53 51.13,83.02c19.01,-5.01 37.41,-12.09 54.88,-21.11z" />
	<path id="Layer" class="shp8" d="M0,215.68h95.92c0.36,-37.45 5.8,-74.68 16.15,-110.68c-21.11,-5.64 -41.49,-13.75 -60.71,-24.16c-31.55,38.03 -49.62,85.45 -51.36,134.84z" />
	<path id="Layer" class="shp9" d="M215.82,447.05v-103.14c-27.97,0.39 -55.82,3.67 -83.12,9.79c18.88,52.76 48.89,88.49 83.12,93.35z" />
	<path id="Layer" class="shp10" d="M215.82,231.68h-103.89c0.41,36.13 5.7,72.04 15.75,106.75c28.93,-6.6 58.47,-10.12 88.14,-10.52z" />
	<path id="Layer" class="shp11" d="M215.82,0.32c-34.23,4.86 -64.24,40.59 -83.12,93.35c27.3,6.12 55.15,9.39 83.12,9.79z" />
	<path id="Layer" class="shp12" d="M215.82,119.45c-29.67,-0.39 -59.21,-3.91 -88.14,-10.51c-10.05,34.71 -15.34,70.61 -15.75,106.74h103.89z" />
	<path id="Layer" class="shp13" d="M168.11,6.79c-0.65,0.17 -1.3,0.3 -1.95,0.47c-1.7,0.45 -3.37,0.96 -5.05,1.45c-2.01,0.59 -4,1.18 -6.02,1.82c-1.7,0.55 -3.37,1.14 -5.04,1.72c-1.96,0.69 -3.92,1.38 -5.86,2.11c-1.67,0.64 -3.32,1.3 -4.98,1.98c-1.9,0.8 -3.81,1.6 -5.69,2.4c-1.65,0.72 -3.28,1.48 -4.91,2.24c-1.85,0.87 -3.69,1.76 -5.51,2.68c-1.6,0.82 -3.2,1.65 -4.8,2.5c-1.79,0.96 -3.57,1.95 -5.34,2.95c-1.6,0.89 -3.18,1.81 -4.72,2.75c-1.74,1.05 -3.46,2.13 -5.17,3.2c-1.54,0.98 -3.07,1.98 -4.58,3c-1.69,1.14 -3.35,2.32 -5.01,3.5c-1.49,1.07 -2.97,2.13 -4.43,3.2c-1.64,1.23 -3.2,2.51 -4.85,3.79c-1.42,1.14 -2.86,2.27 -4.25,3.44c-1.6,1.32 -3.12,2.69 -4.66,4.05c-1.37,1.22 -2.75,2.4 -4.08,3.66c-1.52,1.42 -3,2.89 -4.48,4.35c-1.29,1.27 -2.6,2.53 -3.87,3.84c-0.23,0.24 -0.45,0.51 -0.7,0.75c17.45,9.02 35.83,16.09 54.82,21.1c9.88,-31.48 27.44,-60 51.11,-82.98z" />
	<path id="Layer" class="shp14" d="M66.72,383.23c1.49,1.46 2.97,2.95 4.5,4.37c1.33,1.23 2.7,2.4 4.06,3.63c1.55,1.38 3.1,2.76 4.7,4.09c1.38,1.16 2.79,2.28 4.21,3.41c1.6,1.3 3.2,2.59 4.89,3.83c1.44,1.08 2.91,2.13 4.37,3.2c1.67,1.2 3.36,2.4 5.06,3.55c1.5,1.01 3.02,1.99 4.54,2.96c1.73,1.11 3.46,2.2 5.22,3.25c1.54,0.93 3.1,1.84 4.66,2.73c1.79,1.02 3.58,2.02 5.39,2.98c1.6,0.8 3.2,1.67 4.8,2.47c1.84,0.93 3.7,1.82 5.6,2.71c1.6,0.75 3.23,1.5 4.88,2.22c1.89,0.84 3.8,1.6 5.72,2.4c1.65,0.67 3.29,1.34 4.95,1.97c1.94,0.75 3.91,1.44 5.88,2.12c1.66,0.58 3.33,1.17 5.02,1.71c2,0.65 4,1.24 6.05,1.83c1.66,0.49 3.34,0.98 5.02,1.43c0.65,0.18 1.3,0.31 1.95,0.48c-23.68,-23 -41.25,-51.53 -51.13,-83.03c-18.99,5.01 -37.37,12.09 -54.82,21.11c0.23,0.24 0.46,0.5 0.69,0.74c1.2,1.3 2.49,2.55 3.8,3.82z" />
	<path id="Layer" class="shp15" d="M51.36,366.52c19.22,-10.41 39.6,-18.52 60.71,-24.16c-10.35,-36 -15.79,-73.23 -16.15,-110.68h-95.92c1.75,49.39 19.8,96.8 51.36,134.84z" />
</svg>